<svg width="226" height="35" viewBox="0 0 226 35" fill="none" xmlns="http://www.w3.org/2000/svg">
<path d="M20.2148 5.68V12.72H9.09484V16.64H17.0948V23.32H9.09484V34H0.214844V5.68H20.2148ZM33.9427 34.28C31.676 34.28 29.636 33.8133 27.8227 32.88C26.0093 31.9467 24.5827 30.6133 23.5427 28.88C22.5293 27.12 22.0227 25.0667 22.0227 22.72C22.0227 20.3733 22.5293 18.3333 23.5427 16.6C24.5827 14.84 26.0093 13.4933 27.8227 12.56C29.636 11.6267 31.676 11.16 33.9427 11.16C36.2093 11.16 38.2493 11.6267 40.0627 12.56C41.876 13.4933 43.2893 14.84 44.3027 16.6C45.3427 18.3333 45.8627 20.3733 45.8627 22.72C45.8627 25.0667 45.3427 27.12 44.3027 28.88C43.2893 30.6133 41.876 31.9467 40.0627 32.88C38.2493 33.8133 36.2093 34.28 33.9427 34.28ZM33.9427 26.6C34.7693 26.6 35.4627 26.28 36.0227 25.64C36.5827 24.9733 36.8627 24 36.8627 22.72C36.8627 21.44 36.5827 20.48 36.0227 19.84C35.4627 19.1733 34.7693 18.84 33.9427 18.84C33.116 18.84 32.4227 19.1733 31.8627 19.84C31.3027 20.48 31.0227 21.44 31.0227 22.72C31.0227 24 31.2893 24.9733 31.8227 25.64C32.3827 26.28 33.0893 26.6 33.9427 26.6ZM59.3723 34.28C57.1057 34.28 55.0657 33.8133 53.2523 32.88C51.439 31.9467 50.0123 30.6133 48.9723 28.88C47.959 27.12 47.4523 25.0667 47.4523 22.72C47.4523 20.3733 47.959 18.3333 48.9723 16.6C50.0123 14.84 51.439 13.4933 53.2523 12.56C55.0657 11.6267 57.1057 11.16 59.3723 11.16C61.639 11.16 63.679 11.6267 65.4923 12.56C67.3057 13.4933 68.719 14.84 69.7323 16.6C70.7723 18.3333 71.2923 20.3733 71.2923 22.72C71.2923 25.0667 70.7723 27.12 69.7323 28.88C68.719 30.6133 67.3057 31.9467 65.4923 32.88C63.679 33.8133 61.639 34.28 59.3723 34.28ZM59.3723 26.6C60.199 26.6 60.8923 26.28 61.4523 25.64C62.0123 24.9733 62.2923 24 62.2923 22.72C62.2923 21.44 62.0123 20.48 61.4523 19.84C60.8923 19.1733 60.199 18.84 59.3723 18.84C58.5457 18.84 57.8523 19.1733 57.2923 19.84C56.7323 20.48 56.4523 21.44 56.4523 22.72C56.4523 24 56.719 24.9733 57.2523 25.64C57.8123 26.28 58.519 26.6 59.3723 26.6ZM72.882 22.72C72.882 20.3467 73.282 18.2933 74.082 16.56C74.9087 14.8 76.0287 13.4667 77.442 12.56C78.8554 11.6267 80.442 11.16 82.202 11.16C83.6687 11.16 84.922 11.4667 85.962 12.08C87.0287 12.6667 87.842 13.48 88.402 14.52V4.4H97.282V34H88.402V30.92C87.842 31.96 87.0287 32.7867 85.962 33.4C84.922 33.9867 83.6687 34.28 82.202 34.28C80.442 34.28 78.8554 33.8267 77.442 32.92C76.0287 31.9867 74.9087 30.6533 74.082 28.92C73.282 27.16 72.882 25.0933 72.882 22.72ZM88.442 22.72C88.442 21.52 88.1354 20.5867 87.522 19.92C86.9087 19.2533 86.122 18.92 85.162 18.92C84.202 18.92 83.4154 19.2533 82.802 19.92C82.1887 20.5867 81.882 21.52 81.882 22.72C81.882 23.92 82.1887 24.8533 82.802 25.52C83.4154 26.1867 84.202 26.52 85.162 26.52C86.122 26.52 86.9087 26.1867 87.522 25.52C88.1354 24.8533 88.442 23.92 88.442 22.72Z" fill="#01AD47"/>
<path d="M105.75 9.64C104.203 9.64 102.963 9.22667 102.03 8.4C101.096 7.57333 100.63 6.53333 100.63 5.28C100.63 4 101.096 2.94667 102.03 2.12C102.963 1.26666 104.203 0.839998 105.75 0.839998C107.27 0.839998 108.496 1.26666 109.43 2.12C110.363 2.94667 110.83 4 110.83 5.28C110.83 6.53333 110.363 7.57333 109.43 8.4C108.496 9.22667 107.27 9.64 105.75 9.64ZM110.15 11.44V34H101.27V11.44H110.15ZM136 22.52C136 23.1333 135.96 23.72 135.88 24.28H121.6C121.733 26.2267 122.547 27.2 124.04 27.2C125 27.2 125.693 26.76 126.12 25.88H135.52C135.2 27.48 134.52 28.92 133.48 30.2C132.467 31.4533 131.173 32.4533 129.6 33.2C128.053 33.92 126.347 34.28 124.48 34.28C122.24 34.28 120.24 33.8133 118.48 32.88C116.747 31.9467 115.387 30.6133 114.4 28.88C113.44 27.12 112.96 25.0667 112.96 22.72C112.96 20.3733 113.44 18.3333 114.4 16.6C115.387 14.84 116.747 13.4933 118.48 12.56C120.24 11.6267 122.24 11.16 124.48 11.16C126.72 11.16 128.707 11.6267 130.44 12.56C132.2 13.4667 133.56 14.7733 134.52 16.48C135.507 18.1867 136 20.2 136 22.52ZM127 20.4C127 19.6533 126.76 19.0933 126.28 18.72C125.8 18.32 125.2 18.12 124.48 18.12C122.907 18.12 121.987 18.88 121.72 20.4H127ZM158.809 5.68V12.72H147.689V16.64H155.689V23.32H147.689V34H138.809V5.68H158.809ZM166.296 9.64C164.75 9.64 163.51 9.22667 162.576 8.4C161.643 7.57333 161.176 6.53333 161.176 5.28C161.176 4 161.643 2.94667 162.576 2.12C163.51 1.26666 164.75 0.839998 166.296 0.839998C167.816 0.839998 169.043 1.26666 169.976 2.12C170.91 2.94667 171.376 4 171.376 5.28C171.376 6.53333 170.91 7.57333 169.976 8.4C169.043 9.22667 167.816 9.64 166.296 9.64ZM170.696 11.44V34H161.816V11.44H170.696ZM190.507 11.28C193.094 11.28 195.107 12.1467 196.547 13.88C198.014 15.6133 198.747 17.96 198.747 20.92V34H189.907V22.04C189.907 20.9733 189.614 20.1333 189.027 19.52C188.467 18.88 187.707 18.56 186.747 18.56C185.76 18.56 184.987 18.88 184.427 19.52C183.867 20.1333 183.587 20.9733 183.587 22.04V34H174.707V11.44H183.587V14.88C184.28 13.8133 185.2 12.9467 186.347 12.28C187.52 11.6133 188.907 11.28 190.507 11.28ZM201.398 22.72C201.398 20.3467 201.798 18.2933 202.598 16.56C203.424 14.8 204.544 13.4667 205.958 12.56C207.371 11.6267 208.958 11.16 210.718 11.16C212.184 11.16 213.438 11.4667 214.478 12.08C215.544 12.6667 216.358 13.48 216.918 14.52V4.4H225.798V34H216.918V30.92C216.358 31.96 215.544 32.7867 214.478 33.4C213.438 33.9867 212.184 34.28 210.718 34.28C208.958 34.28 207.371 33.8267 205.958 32.92C204.544 31.9867 203.424 30.6533 202.598 28.92C201.798 27.16 201.398 25.0933 201.398 22.72ZM216.958 22.72C216.958 21.52 216.651 20.5867 216.038 19.92C215.424 19.2533 214.638 18.92 213.678 18.92C212.718 18.92 211.931 19.2533 211.318 19.92C210.704 20.5867 210.398 21.52 210.398 22.72C210.398 23.92 210.704 24.8533 211.318 25.52C211.931 26.1867 212.718 26.52 213.678 26.52C214.638 26.52 215.424 26.1867 216.038 25.52C216.651 24.8533 216.958 23.92 216.958 22.72Z" fill="white"/>
</svg>
